<svg xmlns="http://www.w3.org/2000/svg" version="1.1" xmlns:xlink="http://www.w3.org/1999/xlink" xmlns:svgjs="http://svgjs.dev/svgjs" width="1000" height="1000" viewBox="0 0 1000 1000"><rect width="1000" height="1000" fill="#000000"></rect><g transform="matrix(0.7,0,0,0.7,149.70706482574366,256.2475316494366)"><svg viewBox="0 0 354 247" data-background-color="#ffffff" preserveAspectRatio="xMidYMid meet" height="697" width="1000" xmlns="http://www.w3.org/2000/svg" xmlns:xlink="http://www.w3.org/1999/xlink"><g id="tight-bounds" transform="matrix(1,0,0,1,0.1481415024096293,-0.100000650565363)"><svg viewBox="0 0 353.70371587290134 247.2" height="247.2" width="353.70371587290134"><g><svg viewBox="0 0 395.52 276.4249839974348" height="247.2" width="353.70371587290134"><g transform="matrix(1,0,0,1,0,205.67381717004812)"><svg viewBox="0 0 395.52 70.75116682738668" height="70.75116682738668" width="395.52"><g><svg viewBox="0 0 395.52 70.75116682738668" height="70.75116682738668" width="395.52"><g><svg viewBox="0 0 395.52 70.75116682738668" height="70.75116682738668" width="395.52"><g transform="matrix(1,0,0,1,0,0)"><svg width="395.52" viewBox="2.049999952316284 -36.54999923706055 207.38999938964844 37.099998474121094" height="70.75116682738668" data-palette-color="#ec9131"><path d="M38.9-33.1L34.7-32.05 34.7-3.95 38.9-2.9 38.9 0 24 0 24-2.9 28.2-3.95 28.2-16.65 12.75-16.65 12.75-3.95 16.95-2.9 16.95 0 2.05 0 2.05-2.9 6.25-3.95 6.25-32.05 2.05-33.1 2.05-36 16.95-36 16.95-33.1 12.75-32.05 12.75-20.3 28.2-20.3 28.2-32.05 24-33.1 24-36 38.9-36 38.9-33.1ZM77-18.4L77-18.4Q77-14.25 75.8-10.4 74.6-6.55 72-3.85L72-3.85Q69.85-1.65 66.85-0.58 63.85 0.5 59.65 0.5L59.65 0.5Q55.45 0.5 52.45-0.55 49.45-1.6 47.4-3.7L47.4-3.7Q45.25-5.95 43.92-9.58 42.6-13.2 42.6-17.6L42.6-17.6Q42.6-21.95 43.92-25.78 45.25-29.6 47.6-32.15L47.6-32.15Q49.7-34.4 52.65-35.45 55.6-36.5 59.8-36.5L59.8-36.5Q63.8-36.5 66.85-35.5 69.9-34.5 72.15-32.3L72.15-32.3Q74.75-29.7 75.87-26.03 77-22.35 77-18.4ZM49.85-18.55L49.85-18.55Q49.85-14.65 50.57-11.65 51.3-8.65 52.55-6.75L52.55-6.75Q53.75-4.9 55.55-3.95 57.35-3 59.95-3L59.95-3Q64.65-3 67.05-6.3L67.05-6.3Q68.35-8.05 69.05-10.9 69.75-13.75 69.75-17.7L69.75-17.7Q69.75-21.65 69.02-24.58 68.3-27.5 67-29.35L67-29.35Q65.7-31.25 63.82-32.15 61.95-33.05 59.6-33.05L59.6-33.05Q57.25-33.05 55.52-32.18 53.8-31.3 52.65-29.75L52.65-29.75Q49.85-26.05 49.85-18.55ZM95.25 0.55L95.25 0.55Q92.4 0.55 90.42-0.28 88.45-1.1 86.9-2.9L86.9-2.9 86.35 0 82.05 0 82.05-12.1 86.6-12.1Q86.9-7.1 89.05-5.03 91.2-2.95 94.75-2.95L94.75-2.95Q97.6-2.95 99.3-4.15 101-5.35 101-7.85L101-7.85Q101-9.9 99.87-11.23 98.75-12.55 96.72-13.58 94.7-14.6 92-15.7L92-15.7Q88.9-17 86.7-18.35 84.5-19.7 83.35-21.6 82.2-23.5 82.2-26.4L82.2-26.4Q82.2-31.25 85.17-33.9 88.15-36.55 93.15-36.55L93.15-36.55Q98.1-36.55 101.2-33.75L101.2-33.75 101.6-36 105.9-36 105.9-23.9 101.55-23.9Q101.55-28.6 99.8-30.85 98.05-33.1 94.4-33.1L94.4-33.1Q88.75-33.1 88.75-27.75L88.75-27.75Q88.75-26 89.45-24.95 90.15-23.9 91.77-23 93.4-22.1 96.2-20.85L96.2-20.85Q100.4-18.95 102.9-17.3 105.4-15.65 106.47-13.83 107.55-12 107.55-9.55L107.55-9.55Q107.55-6.2 105.9-3.95 104.25-1.7 101.47-0.58 98.7 0.55 95.25 0.55ZM110.99-24.75L110.99-36 142.29-36 142.29-24.75 139.09-24.75 137.49-32.25 129.89-32.25 129.89-4.1 135.19-2.9 135.19 0 118.09 0 118.09-2.9 123.39-4.1 123.39-32.25 115.74-32.25 114.19-24.75 110.99-24.75ZM168.24-25.1L168.24-11.9 164.19-11.9 163.34-16.6 156.49-16.6 156.49-3.75 170.24-3.75 171.64-11.15 176.04-11.15 176.04 0 145.29 0 145.29-2.9 149.99-3.95 149.99-32.05 145.29-33.1 145.29-36 174.94-36 174.94-25.4 170.84-25.4 169.39-32.35 156.49-32.35 156.49-20.35 163.34-20.35 164.19-25.1 168.24-25.1ZM196.59-33.1L191.39-32.05 191.39-3.75 203.49-3.75 205.19-12.4 209.44-12.4 209.44 0 180.19 0 180.19-2.9 184.89-3.95 184.89-32.05 180.19-33.1 180.19-36 196.59-36 196.59-33.1Z" opacity="1" transform="matrix(1,0,0,1,0,0)" fill="#ffffff" class="undefined-text-0" data-fill-palette-color="primary" id="text-0"></path></svg></g></svg></g></svg></g></svg></g><g transform="matrix(1,0,0,1,111.62574387491807,0)"><svg viewBox="0 0 172.26851225016384 172.26851225016384" height="172.26851225016384" width="172.26851225016384"><g><svg></svg></g><g id="icon-0"><svg viewBox="0 0 172.26851225016384 172.26851225016384" height="172.26851225016384" width="172.26851225016384"><g><path d="M0 86.134c0-47.571 38.564-86.134 86.134-86.134 47.571 0 86.134 38.564 86.135 86.134 0 47.571-38.564 86.134-86.135 86.135-47.571 0-86.134-38.564-86.134-86.135zM86.134 165.888c44.047 0 79.754-35.707 79.754-79.754 0-44.047-35.707-79.754-79.754-79.754-44.047 0-79.754 35.707-79.754 79.754 0 44.047 35.707 79.754 79.754 79.754z" data-fill-palette-color="accent" fill="#ffffff" stroke="transparent"></path></g><g transform="matrix(1,0,0,1,36.28852064126261,55.50135622364742)"><svg viewBox="0 0 99.69147096763862 61.26579980286899" height="61.26579980286899" width="99.69147096763862"><g><svg xmlns="http://www.w3.org/2000/svg" data-name="Layer 1" viewBox="2.430551767349243 20.79190444946289 95.1390609741211 58.46809768676758" x="0" y="0" height="61.26579980286899" width="99.69147096763862" class="icon-a-0" data-fill-palette-color="accent" id="a-0"><path d="M62.78 23l32 55.42 1.3-2.26h-64l1.3 2.26L65.37 23a1.5 1.5 0 0 0-2.59-1.51L30.79 77a1.51 1.51 0 0 0 1.3 2.26h64A1.51 1.51 0 0 0 97.37 77l-32-55.42A1.5 1.5 0 0 0 62.78 23Z" fill="#ffffff" data-fill-palette-color="accent"></path><path d="M34.63 23l32 55.42 1.3-2.26h-64l1.3 2.26L37.22 23a1.5 1.5 0 0 0-2.59-1.51L2.63 77a1.51 1.51 0 0 0 1.3 2.26h64A1.51 1.51 0 0 0 69.21 77l-32-55.42A1.5 1.5 0 0 0 34.63 23Z" fill="#ffffff" data-fill-palette-color="accent"></path></svg></g></svg></g></svg></g></svg></g><g></g></svg></g><defs></defs></svg><rect width="353.70371587290134" height="247.2" fill="none" stroke="none" visibility="hidden"></rect></g></svg></g></svg>